<svg xmlns="http://www.w3.org/2000/svg" viewBox="0 0 30.9238 30.9238"><defs><style>.a{fill:#f5f5f5;}.b{fill:#303069;}</style></defs><title>cal-ico</title><circle class="a" cx="15.4619" cy="15.4619" r="15.4619"/><path class="b" d="M22.5992,8.4772H19.795V7.7807a.38.38,0,0,0-.7594,0v.6965H17.1594V7.7807a.38.38,0,0,0-.76,0v.6965H14.5238V7.7807a.38.38,0,0,0-.7595,0v.6965H11.8882V7.7807a.38.38,0,0,0-.7595,0v.6965H8.3245a.95.95,0,0,0-.9491.9491V21.0382a.95.95,0,0,0,.9491.9491H22.5992a.95.95,0,0,0,.9491-.9491V9.4263a.95.95,0,0,0-.9491-.9491Zm.19,12.561a.19.19,0,0,1-.19.19H8.3245a.19.19,0,0,1-.19-.19v-8.426H21.6a.38.38,0,0,0,0-.7593H8.1346V9.4263a.19.19,0,0,1,.19-.19h2.8042v.6964a.38.38,0,0,0,.7595,0V9.2364h1.8761v.6964a.38.38,0,0,0,.7595,0V9.2364H16.4v.6964a.38.38,0,0,0,.76,0V9.2364h1.8762v.6964a.38.38,0,0,0,.7594,0V9.2364h2.8042a.19.19,0,0,1,.19.19Z"/><path class="b" d="M20.4257,14.0965H10.498a.3416.3416,0,0,0-.3417.3417v4.9639a.3417.3417,0,0,0,.3417.3417h9.9277a.3417.3417,0,0,0,.3418-.3417V14.4382a.3416.3416,0,0,0-.3418-.3417ZM12.6382,19.06H10.84V17.2618h1.7985Zm0-2.482H10.84V14.78h1.7985ZM15.12,19.06H13.3217V17.2618H15.12Zm0-2.482H13.3217V14.78H15.12Zm2.4819,2.482H15.8036V17.2618h1.7985Zm0-2.482H15.8036V14.78h1.7985ZM20.084,19.06H18.2855V17.2618H20.084Zm0-2.482H18.2855V14.78H20.084Z"/></svg>