<svg xmlns="http://www.w3.org/2000/svg" viewBox="0 0 35.7162 35.7162"><defs><style>.a{fill:#f5f5f5;}.b{fill:#303069;}</style></defs><title>ext-ico</title><circle class="a" cx="17.8581" cy="17.8581" r="17.8581"/><path class="b" d="M26.2583,9.1931a.41.41,0,1,0,0,.58A.411.411,0,0,0,26.2583,9.1931Z"/><path class="b" d="M27.7079,10.6433l.29-.29a1.23,1.23,0,0,0,0-1.74l-1.16-1.16a1.23,1.23,0,0,0-1.74,0l-.29.29-.29-.29a.41.41,0,0,0-.58.58l.29.29-.58.58-.29-.29a.41.41,0,1,0-.58.58l.29.29-.29.29a1.2322,1.2322,0,0,0-.24,1.4L18.5818,15.13c-1.9415-1.2132-4.327-.9277-5.33.8482a4.5158,4.5158,0,0,1-2.7674,2.3427,3.9772,3.9772,0,0,0-1.9538,1.06c-1.875,1.875-1.3692,5.0106.58,6.96,1.9766,1.9771,5.1073,2.4327,6.96.58a3.9774,3.9774,0,0,0,1.0605-1.9541A4.5159,4.5159,0,0,1,19.4736,22.2c1.8-1.0168,2.0448-3.4149.8481-5.33l3.9562-3.956a1.2317,1.2317,0,0,0,1.4-.24l.29-.29.29.29a.41.41,0,1,0,.58-.58l-.29-.29.58-.58.29.29a.41.41,0,0,0,.58-.58Zm-8.6373,10.842a5.3021,5.3021,0,0,0-2.74,3.303,3.1151,3.1151,0,0,1-.84,1.5526c-1.5456,1.5456-4.1763,1.0433-5.8-.58-1.6269-1.6265-2.1231-4.2568-.58-5.8a3.1157,3.1157,0,0,1,1.5523-.84,5.3023,5.3023,0,0,0,3.3031-2.74c.7706-1.3638,2.5754-1.472,4.0182-.6537L15.49,18.2218a2.0505,2.0505,0,1,0,1.74,1.74l2.4946-2.4944C20.5467,18.9175,20.4262,20.7193,19.0706,21.4853Zm-3-2.1043a1.23,1.23,0,1,1-1.74,0A1.2312,1.2312,0,0,1,16.07,19.381Zm.84-.2606a2.0353,2.0353,0,0,0-.58-.58l6.7371-6.7375.58.58ZM27.4179,9.7733l-2.32,2.32a.4105.4105,0,0,1-.58,0l-.29-.29.87-.87a.41.41,0,0,0-.58-.58l-.87.87-.29-.29a.4105.4105,0,0,1,0-.58l2.32-2.32a.41.41,0,0,1,.58,0l1.16,1.16A.41.41,0,0,1,27.4179,9.7733Z"/><path class="b" d="M13.1705,24.6007l-2.32-2.32a.41.41,0,1,0-.58.58l2.32,2.32a.41.41,0,1,0,.58-.58Z"/></svg>