<svg xmlns="http://www.w3.org/2000/svg" viewBox="0 0 30.9238 30.9238"><defs><style>.a{fill:#f5f5f5;}.b{fill:#303069;}</style></defs><title>idi-ico</title><circle class="a" cx="15.4619" cy="15.4619" r="15.4619"/><path class="b" d="M24.3892,14.2639a.3769.3769,0,0,0-.3768.3768v1.3425a1.399,1.399,0,0,1-1.3972,1.3973H20.4678a.3766.3766,0,0,0-.2663.11l-2.6033,2.6035V17.7572a.3766.3766,0,0,0-.3767-.3767H11.8279a1.3988,1.3988,0,0,1-1.3973-1.3973V10.2845a1.3987,1.3987,0,0,1,1.3973-1.3971H22.6152a1.3988,1.3988,0,0,1,1.3972,1.3971v1.3424a.3768.3768,0,1,0,.7535,0V10.2845a2.1531,2.1531,0,0,0-2.1507-2.1506H11.8279a2.1531,2.1531,0,0,0-2.1507,2.1506v4.84H6.9353a1.4589,1.4589,0,0,0-1.4574,1.4573V20.053A1.459,1.459,0,0,0,6.9353,21.51H8.0874l1.8672,1.8671a.3767.3767,0,0,0,.6431-.2662V21.51h2.909A1.4589,1.4589,0,0,0,14.964,20.053V18.1339h1.8807v2.8695a.3767.3767,0,0,0,.6432.2663l3.136-3.1358h1.9913a2.153,2.153,0,0,0,2.1507-2.1507V14.6407a.377.377,0,0,0-.3767-.3768ZM14.2107,20.053a.7046.7046,0,0,1-.704.7039H10.221a.3767.3767,0,0,0-.3766.3767v1.0683L8.51,20.8673a.377.377,0,0,0-.2664-.11H6.9353a.7046.7046,0,0,1-.704-.7039V16.5816a.7047.7047,0,0,1,.704-.7038H9.6772v.1054a2.153,2.153,0,0,0,2.1507,2.1507h2.3828Z"/><path class="b" d="M20.8945,10.6026h-7.346a.3767.3767,0,0,0,0,.7534h7.346a.3767.3767,0,1,0,0-.7534Z"/><path class="b" d="M21.2713,13.0137a.3769.3769,0,0,0-.3768-.3768h-7.346a.3768.3768,0,0,0,0,.7535h7.346a.3767.3767,0,0,0,.3768-.3767Z"/><path class="b" d="M13.5485,14.6713a.3767.3767,0,1,0,0,.7534h4.2381a.3767.3767,0,1,0,0-.7534Z"/><path class="b" d="M24.3892,12.757a.3768.3768,0,1,0,.3767.3767.3776.3776,0,0,0-.3767-.3767Z"/></svg>