<svg xmlns="http://www.w3.org/2000/svg" viewBox="0 0 35.7162 35.7162"><defs><style>.a{fill:#f5f5f5;}.b{fill:#303069;}</style></defs><title>jor-ico</title><circle class="a" cx="17.8581" cy="17.8581" r="17.8581"/><path class="b" d="M25.6987,23.7058l-1.0748-2.0172V16.707a6.7778,6.7778,0,0,0-4.8884-6.5006V7.72a1.8775,1.8775,0,1,0-3.7549,0v2.4867a6.7781,6.7781,0,0,0-4.8884,6.5006v4.9815l-1.0747,2.0172a1.2417,1.2417,0,0,0,1.096,1.8257H15.38a2.4817,2.4817,0,0,0,4.9556,0h4.2669a1.2417,1.2417,0,0,0,1.0959-1.8257ZM16.974,7.72a.8841.8841,0,1,1,1.7681,0V9.999a6.8013,6.8013,0,0,0-1.7681,0V7.72ZM12.0857,16.707a5.7724,5.7724,0,0,1,11.5448,0v4.5706H12.0857Zm5.7724,10.1735a1.4905,1.4905,0,0,1-1.4818-1.349H19.34A1.4905,1.4905,0,0,1,17.8581,26.8805Zm6.9576-2.463a.2444.2444,0,0,1-.2129.1206H11.1135a.2484.2484,0,0,1-.2192-.3652l1.0133-1.9019H23.8087l1.0133,1.9019A.2447.2447,0,0,1,24.8157,24.4175Z"/></svg>