<svg xmlns="http://www.w3.org/2000/svg" viewBox="0 0 539.95 166.41"><defs><style>.cls-1{fill:#fff;}</style></defs><title>logo-guia-2</title><g id="Capa_2" data-name="Capa 2"><g id="Capa_3" data-name="Capa 3"><path class="cls-1" d="M70.11,20.93H89.34V59.06c0,2.42.35,4.17,1.06,5.23a4.93,4.93,0,0,0,7.27,0c.71-1.06,1.06-2.81,1.06-5.23V20.93H118V78.71H99.37v-7h-.22q-3.74,8.55-14,8.54a24.12,24.12,0,0,1-5.93-.69A11.29,11.29,0,0,1,74.48,77a12.34,12.34,0,0,1-3.2-4.81,21.08,21.08,0,0,1-1.18-7.68V20.93Z"/><path class="cls-1" d="M123.29,20.93h19.23V78.71H123.29ZM128.09,0H146L135.78,15.59H123.4Z"/><path class="cls-1" d="M290.77,49.88A75.34,75.34,0,0,1,290,61a26.2,26.2,0,0,1-3.36,9.73,19,19,0,0,1-7.42,6.88q-4.87,2.63-13,2.62-8.43,0-13.34-2.4a16.77,16.77,0,0,1-7.37-6.57,24.63,24.63,0,0,1-3.15-9.66,93.12,93.12,0,0,1-.69-11.8,75.34,75.34,0,0,1,.8-11.1A26,26,0,0,1,245.83,29a18.7,18.7,0,0,1,7.42-6.89q4.85-2.61,13-2.62c5.62,0,10.08.81,13.35,2.41a16.75,16.75,0,0,1,7.37,6.56,25,25,0,0,1,3.15,9.72A97.13,97.13,0,0,1,290.77,49.88Zm-29.9,0c0,3.63.07,6.61.21,8.92a23.49,23.49,0,0,0,.86,5.5,5.27,5.27,0,0,0,1.65,2.77,4.23,4.23,0,0,0,2.61.75,4.58,4.58,0,0,0,2.68-.75,5,5,0,0,0,1.65-2.77,27.06,27.06,0,0,0,.8-5.5c.14-2.31.22-5.29.22-8.92s-.07-6.63-.22-9a26.5,26.5,0,0,0-.8-5.55,5,5,0,0,0-1.65-2.78,4.53,4.53,0,0,0-2.68-.74,4.34,4.34,0,0,0-2.61.74,5.39,5.39,0,0,0-1.65,2.78,24.34,24.34,0,0,0-.86,5.55C260.94,43.25,260.87,46.25,260.87,49.88Z"/><path class="cls-1" d="M294.41,2.46h19.22V78.71H294.41Z"/><path class="cls-1" d="M336.49,53.08v7.58q0,4.71,1.6,6.25a5.07,5.07,0,0,0,3.63,1.55A5.27,5.27,0,0,0,344,68a4.07,4.07,0,0,0,1.71-1.6,9.15,9.15,0,0,0,1.07-3,26.47,26.47,0,0,0,.37-4.91h17.3q-.22,10.67-5.45,16.23t-17.2,5.55a35.48,35.48,0,0,1-11.64-1.65,16.48,16.48,0,0,1-7.58-5.28,22.39,22.39,0,0,1-4.11-9.4,68.22,68.22,0,0,1-1.23-14,61.64,61.64,0,0,1,1.38-14.1,23.12,23.12,0,0,1,4.38-9.4,17.06,17.06,0,0,1,7.64-5.28,37.72,37.72,0,0,1,21.25-.26,16.27,16.27,0,0,1,7.26,4.64,20.61,20.61,0,0,1,4.38,8.6A51.24,51.24,0,0,1,365,47.22v5.87H336.49Zm10.56-13q0-4.59-1.12-6.72t-4.22-2.14a4.21,4.21,0,0,0-4.11,2.14c-.74,1.42-1.12,3.66-1.12,6.72v2.56h10.57V40.05Z"/><path class="cls-1" d="M397.25,20.93h17.94V77.75a23.15,23.15,0,0,1-1.87,9.93A16.06,16.06,0,0,1,408.2,94a21.08,21.08,0,0,1-7.64,3.37,42.55,42.55,0,0,1-9.51,1,52.37,52.37,0,0,1-8.7-.69,20.7,20.7,0,0,1-7.05-2.51,13.2,13.2,0,0,1-4.81-5,17.11,17.11,0,0,1-1.86-8.06h17.29a4.26,4.26,0,0,0,1.28,3.31,5.06,5.06,0,0,0,3.52,1.18,10.37,10.37,0,0,0,2.14-.22,3.78,3.78,0,0,0,1.87-1,5.64,5.64,0,0,0,1.33-2.13,11,11,0,0,0,.54-3.85v-11h-.22q-1.81,5-5.45,6.83a16.76,16.76,0,0,1-7.58,1.82A17.47,17.47,0,0,1,377.47,76,12.4,12.4,0,0,1,372,71.87a24.5,24.5,0,0,1-4-8.7,56.29,56.29,0,0,1-1.55-14.58,66.33,66.33,0,0,1,1.23-13.93,25.44,25.44,0,0,1,3.53-9,13.16,13.16,0,0,1,5.6-4.81,18.59,18.59,0,0,1,7.48-1.45,14.33,14.33,0,0,1,7.58,2.14q3.53,2.14,5.13,7.37h.22v-8ZM385.72,48.27a58.88,58.88,0,0,0,.37,7.42,17.21,17.21,0,0,0,1.06,4.43,4.17,4.17,0,0,0,1.71,2.14,5.19,5.19,0,0,0,2.41.53,4.82,4.82,0,0,0,2.3-.53,4.22,4.22,0,0,0,1.71-2.14,15.55,15.55,0,0,0,1-4.43,67,67,0,0,0,.32-7.42,66,66,0,0,0-.32-7.32,15.91,15.91,0,0,0-1-4.42,4.41,4.41,0,0,0-1.71-2.19,4.5,4.5,0,0,0-2.3-.59,4.76,4.76,0,0,0-2.41.59,4.52,4.52,0,0,0-1.71,2.19A16.53,16.53,0,0,0,386.09,41,58.22,58.22,0,0,0,385.72,48.27Z"/><path class="cls-1" d="M420.85,2.46h19.23V16.77H420.85Zm0,18.47h19.23V78.71H420.85Z"/><path class="cls-1" d="M492.84,49.88A75.34,75.34,0,0,1,492,61a26,26,0,0,1-3.36,9.73,19,19,0,0,1-7.42,6.88q-4.87,2.63-13,2.62-8.43,0-13.34-2.4a16.77,16.77,0,0,1-7.37-6.57,24.63,24.63,0,0,1-3.15-9.66,93.12,93.12,0,0,1-.69-11.8,76.73,76.73,0,0,1,.8-11.1A26,26,0,0,1,447.89,29a18.7,18.7,0,0,1,7.42-6.89c3.23-1.74,7.57-2.62,13-2.62q8.43,0,13.36,2.41A16.78,16.78,0,0,1,489,28.42a25,25,0,0,1,3.15,9.72A97.07,97.07,0,0,1,492.84,49.88Zm-29.91,0c0,3.63.07,6.61.21,8.92a23.49,23.49,0,0,0,.86,5.5,5.27,5.27,0,0,0,1.65,2.77,4.23,4.23,0,0,0,2.61.75,4.58,4.58,0,0,0,2.68-.75,4.93,4.93,0,0,0,1.65-2.77,26.37,26.37,0,0,0,.8-5.5c.14-2.31.22-5.29.22-8.92s-.07-6.63-.22-9a25.85,25.85,0,0,0-.8-5.55,5,5,0,0,0-1.65-2.78,4.53,4.53,0,0,0-2.68-.74,4.34,4.34,0,0,0-2.61.74A5.39,5.39,0,0,0,464,35.36a24.91,24.91,0,0,0-.86,5.55C463,43.25,462.93,46.25,462.93,49.88Z"/><path class="cls-1" d="M511,60.77a14.84,14.84,0,0,0,.32,3.2,6.24,6.24,0,0,0,1.06,2.46,4.64,4.64,0,0,0,4.06,2,6.22,6.22,0,0,0,3.9-1.28A4.32,4.32,0,0,0,522,63.55a4.47,4.47,0,0,0-2.08-4,22.76,22.76,0,0,0-5.18-2.45c-2.07-.71-4.29-1.47-6.68-2.24a28.16,28.16,0,0,1-6.68-3.2,17.18,17.18,0,0,1-5.18-5.4,16.63,16.63,0,0,1-2.08-8.81,17.93,17.93,0,0,1,1.39-7.11,15.77,15.77,0,0,1,4.22-5.71,20.24,20.24,0,0,1,7.15-3.85,33.32,33.32,0,0,1,10.2-1.39q21.68,0,21.69,18.15H522.09c0-2.49-.45-4.18-1.33-5.08a6,6,0,0,0-7.31-.15,4.07,4.07,0,0,0-1.39,3.31,4,4,0,0,0,2.09,3.68,23.93,23.93,0,0,0,5.18,2.19l6.68,2a26.17,26.17,0,0,1,6.67,3A16.45,16.45,0,0,1,537.86,52,16.74,16.74,0,0,1,540,60.86a18.78,18.78,0,0,1-1.6,7.74,17.69,17.69,0,0,1-4.54,6.15,21,21,0,0,1-7.27,4,30.87,30.87,0,0,1-9.77,1.44q-12.07,0-17.36-5t-5.29-14.47H511Z"/><path class="cls-1" d="M184.66,43a1.33,1.33,0,0,0-.49-.76,1.25,1.25,0,0,0-.77-.22,1.39,1.39,0,0,0-.82.22,1.37,1.37,0,0,0-.48.76,6.66,6.66,0,0,0-.23,1.44c-.05.61-.07,1.36-.07,2.28s0,1.67.07,2.25a6.66,6.66,0,0,0,.23,1.44,1.45,1.45,0,0,0,.48.76,1.37,1.37,0,0,0,.82.22,1.25,1.25,0,0,0,.77-.22,1.4,1.4,0,0,0,.49-.76,6.56,6.56,0,0,0,.23-1.44c.05-.58.06-1.34.06-2.25s0-1.67-.06-2.28A5.62,5.62,0,0,0,184.66,43Z"/><path class="cls-1" d="M220.5,48.06q0,5.46-.27,9a27.8,27.8,0,0,1-.91,5.72,5.77,5.77,0,0,1-1.81,3,4.79,4.79,0,0,1-3,.9,5.28,5.28,0,0,1-3.59-1.17,7.91,7.91,0,0,1-2-4.17,45.65,45.65,0,0,1-.91-8.06q-.21-5.07-.21-12.77c0-5.13.07-9.37.21-12.76a45.66,45.66,0,0,1,.91-8.07,7.84,7.84,0,0,1,2-4.16,5.28,5.28,0,0,1,3.59-1.18,4.39,4.39,0,0,1,4.16,2.35c.86,1.57,1.28,4.53,1.28,8.87V29.9h19.23V25.09a35,35,0,0,0-1.33-10,19.06,19.06,0,0,0-4.27-7.58A19.21,19.21,0,0,0,226,2.66,33.35,33.35,0,0,0,214.52.94,34.86,34.86,0,0,0,201.6,3a18.13,18.13,0,0,0-8.43,6.78,31.24,31.24,0,0,0-4.54,12.28c-.15.84-.28,1.71-.4,2.61a13,13,0,0,0-1.87-1.59,19,19,0,0,0-7.26-2.88,49.08,49.08,0,0,0-9.24-.8,40.55,40.55,0,0,0-7.15.69,20,20,0,0,0-7.16,2.77A17,17,0,0,0,150,28.82a19.83,19.83,0,0,0-2.24,10h16.66c.07-3.06.54-5.11,1.39-6.14a5,5,0,0,1,4.06-1.55c3.28,0,4.91,1.78,4.91,5.34a6,6,0,0,1-1.28,4.11,8.35,8.35,0,0,1-4.38,2.18l-7.58,1.82a35.29,35.29,0,0,0-7.69,2.61A15,15,0,0,0,148.94,51a13.37,13.37,0,0,0-2.62,5.23,27.31,27.31,0,0,0-.81,7,25.59,25.59,0,0,0,.86,6.83,13.62,13.62,0,0,0,2.78,5.34,13.14,13.14,0,0,0,5,3.52,19.23,19.23,0,0,0,7.42,1.28,15.09,15.09,0,0,0,8-2.09,12.24,12.24,0,0,0,5.08-5.92h.21c.14,1.21.29,2.35.43,3.42a14.07,14.07,0,0,0,.74,3.09h18.59a14.68,14.68,0,0,1-1.5-5.33c-.06-.57-.1-1.16-.15-1.78a17.28,17.28,0,0,0,8,6.42q5.34,2.19,13.67,2.19A38.16,38.16,0,0,0,223.88,79a19.49,19.49,0,0,0,8.06-4.1,20.8,20.8,0,0,0,5.66-8.12q2.15-5.11,2.14-13.13V48H220.5Zm-45.74,9.72q0,4.8-1.39,7.15a4.91,4.91,0,0,1-4.59,2.35,4.06,4.06,0,0,1-3.42-1.71A7.51,7.51,0,0,1,164.08,61a10.75,10.75,0,0,1,.86-4.65A6.23,6.23,0,0,1,168,53.5a15.15,15.15,0,0,1,3.9-1.22,3.77,3.77,0,0,0,2.62-1.45h.21v7Zm15.81-2.68h-5.42V52.8h-.06a4.37,4.37,0,0,1-1.43,2.07,3.94,3.94,0,0,1-2.4.67,4,4,0,0,1-3.93-2.28,16.5,16.5,0,0,1-1.12-6.94,18.31,18.31,0,0,1,.37-4,7.84,7.84,0,0,1,1-2.63,4,4,0,0,1,1.61-1.43,5,5,0,0,1,2.14-.44,4.57,4.57,0,0,1,2.14.51,3.05,3.05,0,0,1,1.38,1.83H185V32.87h5.61Zm14.19-7.47h-8.31v2.21a2.6,2.6,0,0,0,.46,1.83,1.51,1.51,0,0,0,1.06.45,1.44,1.44,0,0,0,.67-.14,1.24,1.24,0,0,0,.5-.47,2.42,2.42,0,0,0,.31-.89,7.91,7.91,0,0,0,.11-1.43h5A6.85,6.85,0,0,1,203,53.92q-1.53,1.62-5,1.62a10.26,10.26,0,0,1-3.39-.49,4.8,4.8,0,0,1-2.22-1.54,6.52,6.52,0,0,1-1.2-2.74,19.8,19.8,0,0,1-.36-4.08,17.8,17.8,0,0,1,.41-4.11,6.64,6.64,0,0,1,1.28-2.74,4.93,4.93,0,0,1,2.22-1.54,9.77,9.77,0,0,1,3.26-.49,9.62,9.62,0,0,1,2.94.41,4.76,4.76,0,0,1,2.12,1.36,6.13,6.13,0,0,1,1.28,2.51,15.32,15.32,0,0,1,.42,3.83Z"/><path class="cls-1" d="M198,41.25a1.24,1.24,0,0,0-1.2.62,4.27,4.27,0,0,0-.33,2v.75h3.08v-.75a4.41,4.41,0,0,0-.33-2A1.24,1.24,0,0,0,198,41.25Z"/><path class="cls-1" d="M0,32.88H5.79V50.37h7.13V55.1H0Z"/><path class="cls-1" d="M21.19,47.4a4.39,4.39,0,0,0-1.13.35,1.82,1.82,0,0,0-.9.82,3.12,3.12,0,0,0-.25,1.36,2.19,2.19,0,0,0,.37,1.34,1.19,1.19,0,0,0,1,.5,1.41,1.41,0,0,0,1.34-.68A4.19,4.19,0,0,0,22,49V47H22A1.09,1.09,0,0,1,21.19,47.4Z"/><path class="cls-1" d="M39.88,50.73h7a55,55,0,0,1-.48,8.11,17.59,17.59,0,0,1-1.34,4.86A5.11,5.11,0,0,1,43,66.11a6.15,6.15,0,0,1-2.83.64,5.19,5.19,0,0,1-3.58-1.18,7.8,7.8,0,0,1-2-4.17,44.72,44.72,0,0,1-.91-8.06q-.23-5.07-.22-12.77c0-5.13.07-9.37.22-12.76a44.72,44.72,0,0,1,.91-8.06,7.4,7.4,0,0,1,2.13-4.17,6,6,0,0,1,3.9-1.18,4.41,4.41,0,0,1,4.6,3.31q1.06,2.77,1.06,8.87H65.51a33.83,33.83,0,0,0-1.82-11.8,21.35,21.35,0,0,0-5-8A19,19,0,0,0,51,2.34,32.08,32.08,0,0,0,41.38,1C35.47,1,30.68,1.83,27,3.56a20.25,20.25,0,0,0-8.65,7.64,32.24,32.24,0,0,0-4.27,12.39,115,115,0,0,0-1.12,17q0,9.51.58,16.88a37.79,37.79,0,0,0,2.83,12.38A16.69,16.69,0,0,0,23,77.51q4.36,2.68,12,2.68a33.13,33.13,0,0,0,5.08-.38,19.77,19.77,0,0,0,4.69-1.28A13.5,13.5,0,0,0,48.69,76,10.63,10.63,0,0,0,51.42,72h.22l.42,6.73H65.52V37.26H39.88ZM22.36,55.1a4.39,4.39,0,0,1-.22-.9q-.06-.47-.12-1H22a3.58,3.58,0,0,1-1.48,1.73,4.34,4.34,0,0,1-2.32.6A5.57,5.57,0,0,1,16,55.17a3.75,3.75,0,0,1-1.44-1,4,4,0,0,1-.82-1.55,8.41,8.41,0,0,1,0-4A3.8,3.8,0,0,1,14.49,47a4.54,4.54,0,0,1,1.43-1.09,10.62,10.62,0,0,1,2.24-.76l2.22-.52A2.51,2.51,0,0,0,21.66,44,1.79,1.79,0,0,0,22,42.81c0-1-.48-1.55-1.44-1.55a1.43,1.43,0,0,0-1.18.45A3.17,3.17,0,0,0,19,43.5H14.14a5.73,5.73,0,0,1,.66-2.93,5.1,5.1,0,0,1,1.62-1.73A6,6,0,0,1,18.5,38a11.22,11.22,0,0,1,2.08-.2,14.82,14.82,0,0,1,2.69.23,5.61,5.61,0,0,1,2.12.84,4,4,0,0,1,1.37,1.67,6.52,6.52,0,0,1,.48,2.68v8.22c0,.79,0,1.49.1,2.09a4.34,4.34,0,0,0,.43,1.55H22.36Z"/><path class="cls-1" d="M383.93,111.18c-.06-1.06.76-2.83,3.47-2.83,4.43,0,7.06,4.84,7.06,4.84h1.6V106.7h-1.82c0,.46-.8,1.31-1.06,1.57a8.76,8.76,0,0,0-5.8-1.87c-3.6,0-7.74,2.6-7.74,7.16s3.41,7.19,8.14,8.68,5.85,3.09,5.85,4.44-.52,3.7-4.57,3.7-7-4-7.44-5.63h-1.71v7.91h1.79a8,8,0,0,1,1.24-2,9.2,9.2,0,0,0,6.32,2.08c6.29,0,8.92-4.05,8.92-7.6s-1.75-7.64-8.46-9.43c-5.32-1.43-5.72-3.43-5.79-4.56m20.89,11.93a9.55,9.55,0,0,1-.38-2.78c-.05-2.63,1.16-3.73,2.09-3.9,1.49-.3,3.27.79,3.59,3.31.16,1.22,0,1.77-1.11,2.21-.24.11-4.19,1.16-4.19,1.16m.41,1.94,10-2.83c-.92-3.77-3.06-7.47-7.63-7.47a8.89,8.89,0,0,0-8,5.9,10.31,10.31,0,0,0-.5,3.23c0,5,4.82,9.08,9,9.08a7.52,7.52,0,0,0,7.26-4.61l-1.43-1a4.84,4.84,0,0,1-4.06,2.57c-2.91,0-4.21-3.27-4.56-4.85m39.92,5.67h-.27c-1.47,0-1.59-1.28-1.59-2.4v-8.85a5,5,0,0,0-5.14-4.63c-3.26,0-5.34,2.94-5.68,3.26a5.27,5.27,0,0,0-4.74-3.26c-3.35,0-4.77,2.76-5.1,3.15v-2.64h-2.77l-4.54,2.23v1.79h.75c.3,0,1.38-.07,1.38,1.43v7.52c0,.57-.05,2.4-1.62,2.4h-.41v1.92h8.88v-1.92h-.24c-1.11,0-1.41-.81-1.41-2.4V121c.13-.27,1.12-2.72,3.28-2.72,1.76,0,1.72,2.85,1.72,3.16v6.95c0,.9,0,2.33-1.46,2.33h-.28v1.92h8.74v-1.92h-.25c-1.59,0-1.68-1.28-1.69-2.4s0-4.06,0-5.43v-2.11c.18-.35,1.24-2.51,3.48-2.51,1.93,0,1.87,2.27,1.89,2.77v7.35c0,.63-.13,2.32-1.48,2.33h-.33v1.92h8.89Zm9.24-6v3.73a2.16,2.16,0,0,1-2,1.68c-1.51.16-2.58-1.73-2.58-3.32,0-2.45,1.29-3.25,1.81-3.54a3.51,3.51,0,0,1,2.78-.37Zm7.87,5.65-.42-1.68a1.58,1.58,0,0,1-1.31.69c-.35,0-.65-.12-.65-.91v-7.79c0-3.11-.51-6-6.87-6a8,8,0,0,0-7,4l1.51.85a5.36,5.36,0,0,1,4.35-2.34c2.62,0,2.54,2.16,2.54,3.69a20.14,20.14,0,0,0-6.1,1.43,5.43,5.43,0,0,0-3.31,5c0,3.17,1.78,5.55,5.24,5.55a4.79,4.79,0,0,0,4.28-2.15,4.22,4.22,0,0,0,3.66,2.14,4.9,4.9,0,0,0,4.11-2.57m19.74.32h-.38c-1.53,0-1.66-1.44-1.66-2.46v-9.49c0-1.89-2-3.86-5-3.86A6,6,0,0,0,469.8,118v-2.66h-2.5l-4.8,2.32v1.81h.26c1.73,0,1.83,1.15,1.83,1.67s0,6,0,7.52c0,.6,0,2-1.55,2h-.46v1.91h9v-1.89h-.27c-1.43,0-1.49-1.23-1.49-2v-7.51c.22-.59,1.14-2.72,3.19-2.72,1.65,0,1.69,2,1.69,2.62v7.44c0,.74-.16,2.2-1.49,2.2h-.3l0,1.88H482Zm9.18-2.24a2.15,2.15,0,0,1-2,1.68c-1.51.16-2.57-1.73-2.57-3.32a3.62,3.62,0,0,1,1.8-3.54,3.53,3.53,0,0,1,2.79-.37v5.55Zm7.88,1.92-.43-1.68a1.59,1.59,0,0,1-1.31.69c-.35,0-.64-.12-.64-.91v-7.79c0-3.11-.5-6-6.86-6a7.91,7.91,0,0,0-7,4l1.51.85a5.34,5.34,0,0,1,4.34-2.34c2.62,0,2.55,2.16,2.55,3.69a20.14,20.14,0,0,0-6.1,1.43,5.42,5.42,0,0,0-3.32,5c0,3.17,1.78,5.55,5.24,5.55a4.84,4.84,0,0,0,4.29-2.15A4.22,4.22,0,0,0,495,133a4.92,4.92,0,0,0,4.11-2.57"/><path class="cls-1" d="M540,165.69V137.5h-5.19v16.17l-2.17-4.62-5.75-11.55h-4.79v28.19h5.27V149.77l2.29,4.61,5.91,11.31ZM515.3,129.75h-4.71L509,135.8h2.74Zm-1.81,28.36a3,3,0,1,1-6,0v-13a3,3,0,1,1,6,0Zm5.79-.34V145.41c0-5-3.26-8.59-8.81-8.59s-8.8,3.6-8.8,8.59v12.36c0,5,3.29,8.64,8.8,8.64s8.81-3.6,8.81-8.64M498.85,137.5H493.1v28.19h5.75Zm-8.08,20.69v-2.75h-5.15v2.63a3.22,3.22,0,0,1-6.43.12V145a3.22,3.22,0,0,1,6.43.08v2.63h5.15V145c0-4.7-2.86-8.21-8.45-8.21s-9,3.85-9,8.72v12.19c0,4.86,3.29,8.72,9,8.72s8.45-3.52,8.45-8.22m-25.66-2.58h-3.94l2.05-10.28Zm7.64,10.08-6.23-28.19h-6.43l-6.28,28.19h5.39l1.13-5.59h5.55l1.12,5.59Zm-19.18-7.5v-2.75h-5.14v2.63a3.22,3.22,0,0,1-6.44.12V145a3.22,3.22,0,0,1,6.44.08v2.63h5.14V145c0-4.7-2.85-8.21-8.44-8.21s-9,3.85-9,8.72v12.19c0,4.86,3.3,8.72,9,8.72s8.44-3.52,8.44-8.22m-20.18.3v-21H427.8v20.91a2.71,2.71,0,0,1-3,3,2.66,2.66,0,0,1-2.93-3V137.5H416v21c0,4.7,3.69,7.92,8.76,7.92s8.61-3.22,8.61-7.92m-25.86-1.4c0,2.25-1,3.56-3.22,3.56h-2.73V142.53h2.73c2.22,0,3.22,1.31,3.22,3.56Zm5.75.47V146c0-4.7-3-8.46-8.52-8.46h-8.93v28.19h8.93c5.55,0,8.52-3.39,8.52-8.13m-19.7,8.13V160.4h-9.17v-7.07h6.31v-4.57h-6.31v-6.18h9.17V137.5H378.66v28.19Z"/></g></g></svg>