<svg xmlns="http://www.w3.org/2000/svg" viewBox="0 0 30.9238 30.9238"><defs><style>.a{fill:#f5f5f5;}.b{fill:#303069;}</style></defs><title>mod-ico</title><circle class="a" cx="15.4619" cy="15.4619" r="15.4619"/><path class="b" d="M9.402,9.0253a.3911.3911,0,1,0-.2764-.1145.3939.3939,0,0,0,.2764.1145Z"/><path class="b" d="M10.868,9.0253h2.6a.391.391,0,0,0,0-.782h-2.6a.391.391,0,0,0,0,.782Z"/><path class="b" d="M9.402,11.5274h4.066a.391.391,0,1,0,0-.7819H9.402a.391.391,0,1,0,0,.7819Z"/><path class="b" d="M9.402,14.03h4.066a.391.391,0,0,0,0-.782H9.402a.391.391,0,1,0,0,.782Z"/><path class="b" d="M9.402,16.5317h4.066a.391.391,0,1,0,0-.7819H9.402a.391.391,0,1,0,0,.7819Z"/><path class="b" d="M13.859,18.6429a.391.391,0,0,0-.391-.391H9.402a.391.391,0,1,0,0,.7819h4.066a.3909.3909,0,0,0,.391-.3909Z"/><path class="b" d="M17.0649,8.6343a.3911.3911,0,0,0,.391.391h4.0659a.391.391,0,1,0,0-.782H17.4559a.3912.3912,0,0,0-.391.391Z"/><path class="b" d="M21.5218,10.7455H17.4559a.391.391,0,1,0,0,.7819h4.0659a.391.391,0,1,0,0-.7819Z"/><path class="b" d="M21.5218,13.2476H17.4559a.391.391,0,1,0,0,.782h4.0659a.391.391,0,0,0,0-.782Z"/><path class="b" d="M21.5218,15.75H17.4559a.391.391,0,1,0,0,.7819h4.0659a.391.391,0,1,0,0-.7819Z"/><path class="b" d="M21.5218,18.2519H17.4559a.391.391,0,1,0,0,.7819h4.0659a.391.391,0,1,0,0-.7819Z"/><path class="b" d="M25.08,8.3606h-1.173V6.64a.3909.3909,0,0,0-.3909-.3909H17.809a2.9253,2.9253,0,0,0-2.3471,1.1728A2.9257,2.9257,0,0,0,13.1148,6.25H7.4081a.391.391,0,0,0-.391.3909v1.72H5.8443a.3909.3909,0,0,0-.391.391V22.7479a.3908.3908,0,0,0,.391.391h13.501a.391.391,0,0,0,0-.782H15.82l.0013-.0034.0013-.0022a2.147,2.147,0,0,1,1.9864-1.3236h5.7066a.3907.3907,0,0,0,.3909-.391V9.1426h.782V22.3569H22.5416a.391.391,0,0,0,0,.782H25.08a.3908.3908,0,0,0,.3909-.391V8.7516a.3909.3909,0,0,0-.3909-.391ZM7.7991,7.0314h5.3157a2.1468,2.1468,0,0,1,1.9561,1.2543V20.991a2.9286,2.9286,0,0,0-1.9561-.7452H7.7991ZM6.2352,9.1426h.7819V20.6367a.3908.3908,0,0,0,.391.391h5.7067a2.1472,2.1472,0,0,1,1.9864,1.3236l.0013.0022.0013.0034H6.2352ZM23.1246,20.2458H17.809a2.9284,2.9284,0,0,0-1.9561.7452V8.2857A2.1468,2.1468,0,0,1,17.809,7.0314h5.3156Z"/><path class="b" d="M20.9548,22.3569a.3916.3916,0,1,0,.2764.1148.3934.3934,0,0,0-.2764-.1148Z"/></svg>