<svg xmlns="http://www.w3.org/2000/svg" viewBox="0 0 35.7162 35.7162"><defs><style>.a{fill:#f5f5f5;}.b{fill:#303069;}</style></defs><title>nat-ico</title><circle class="a" cx="17.8581" cy="17.8581" r="17.8581"/><path class="b" d="M13.3791,19.0456a.41.41,0,1,0,.41.41A.41.41,0,0,0,13.3791,19.0456Z"/><path class="b" d="M13.3791,20.6862a.41.41,0,0,0-.41.41v5.168a.41.41,0,0,0,.82,0v-5.168A.41.41,0,0,0,13.3791,20.6862Z"/><path class="b" d="M24.7567,7.6234a.41.41,0,0,0-.64-.2291c-.41.3-2.4713,1.8433-2.8071,2.7654a2.0461,2.0461,0,0,0,.1137,1.6567,19.58,19.58,0,0,0-1.4821,2.69V7.7253a.41.41,0,0,0-.41-.41H16.25a.41.41,0,0,0-.41.41v8.0391h-.0736l-.7005-2.7255-.0011-.0041-.637-2.3768v0a.4123.4123,0,0,0-.0132-.04l-.0051-.012-.0125-.0273-.007-.0128-.0147-.0247-.0082-.0121-.0178-.0233-.0048-.0065L11.9105,7.6309a.41.41,0,0,0-.7151.1858L10.46,11.5336l-.0011.0082-.0045.0322-.001.0136c-.0006.01-.0009.02-.0008.0307l0,.0142.0028.0312.0015.0128a.4242.4242,0,0,0,.0089.0429l.6362,2.3745.4269,1.6884a1.23,1.23,0,0,0-.201,2.3724v8.11a2.0531,2.0531,0,0,0,2.0508,2.0507h8.2031a2.0531,2.0531,0,0,0,2.0508-2.0507v-8.109a1.2307,1.2307,0,0,0-.1787-2.3689,20.2265,20.2265,0,0,0,.5258-3.015,2.04,2.04,0,0,0,1.1843-1.2092C25.5008,10.6384,24.8838,8.1191,24.7567,7.6234Zm-2.7873,4.85a2.0558,2.0558,0,0,0,1.1744.4369,20.455,20.455,0,0,1-.5295,2.8544H20.27A23.7744,23.7744,0,0,1,21.9694,12.4731ZM16.66,8.1355h2.461v.9433h-.82a.41.41,0,1,0,0,.82h.82v.82h-.82a.41.41,0,1,0,0,.82h.82v.82h-.82a.41.41,0,1,0,0,.82h.82v.82h-.82a.41.41,0,1,0,0,.82h.82v.9434H16.66ZM11.8351,8.81l1.6828,1.9827a1.9117,1.9117,0,0,1-2.1918.59Zm-.37,3.4679a2.7,2.7,0,0,0,.5529.0575,2.746,2.746,0,0,0,.711-.0941,2.7182,2.7182,0,0,0,1.1129-.6008l.43,1.6048.6475,2.5192H12.3708L11.897,13.89l-.0015-.0056ZM22.8127,26.2644a1.2319,1.2319,0,0,1-1.23,1.23H13.3791a1.2319,1.2319,0,0,1-1.23-1.23V18.2253H22.8127Zm.82-9.27a.4106.4106,0,0,1-.41.41H11.7385a.41.41,0,0,1,0-.82H23.2229A.4106.4106,0,0,1,23.633,16.9948Zm.7606-5.7131a1.23,1.23,0,0,1-2.1464.31v0a1.2291,1.2291,0,0,1-.1663-1.1512,8.2939,8.2939,0,0,1,2.0249-2.0069A8.2133,8.2133,0,0,1,24.3936,11.2817Z"/></svg>