<svg xmlns="http://www.w3.org/2000/svg" viewBox="0 0 30.9238 30.9238"><defs><style>.a{fill:#f5f5f5;}.b{fill:#303069;}</style></defs><title>tip-ico</title><circle class="a" cx="15.4619" cy="15.4619" r="15.4619"/><path class="b" d="M13.4465,11.9243,11.632,10.8872a2.4979,2.4979,0,1,0-3.0035,0L6.8138,11.926a1.0842,1.0842,0,0,0-.5446.9629l.0137.5872a.4387.4387,0,1,0,.8772-.02L7.1464,12.87a.2065.2065,0,0,1,.1035-.1826l2.2167-1.2686a.2029.2029,0,0,1,.103-.0276h0l1.1207,0a.2038.2038,0,0,1,.111.032l.0175.01,2.1921,1.2526a.2079.2079,0,0,1,.1035.2012l-.0021.0334-.1556,6.6569a.2068.2068,0,0,1-.1388.1906l-.01.0037-1.2546.4671a.4392.4392,0,0,0-.2855.41l-.0059,3.0852a.206.206,0,0,1-.2062.2056l-1.8516.0024a.2082.2082,0,0,1-.208-.208c0-.89-.001-1.87-.0034-3.085a.4388.4388,0,0,0-.2855-.41l-1.27-.4729a.2071.2071,0,0,1-.134-.1913l0-.0068-.0608-2.6037a.4387.4387,0,1,0-.8772.02l.0608,2.6009a1.09,1.09,0,0,0,.7051,1.0027l.9849.3666c.0019,1.0757.0027,1.9652.0027,2.7794A1.0868,1.0868,0,0,0,9.2046,24.82l1.8514-.0026a1.084,1.084,0,0,0,1.083-1.082l.0053-2.78.965-.3593a1.0861,1.0861,0,0,0,.7246-.9993l.1555-6.64a1.0867,1.0867,0,0,0-.5429-1.0314ZM10.13,7.2723A1.6205,1.6205,0,1,1,8.51,8.8929,1.6222,1.6222,0,0,1,10.13,7.2723Z"/><path class="b" d="M24.1821,19.0505l-.1237-.5117a.4386.4386,0,1,0-.8527.2062l.1237.5118a.2055.2055,0,0,1-.1413.2458l-.02.0062-2.1295.7373a.439.439,0,0,0-.2951.4137l-.006,3.0744a.2058.2058,0,0,1-.2061.2056l-1.8514.0026a.2047.2047,0,0,1-.1525-.0667.21.21,0,0,1-.0547-.1606c.0011-.0125.0016-.025.0016-.0375L18.4689,20.66a.4387.4387,0,0,0-.295-.4137l-2.1571-.7469a.2067.2067,0,0,1-.1327-.2424l1.6214-6.7074a.2061.2061,0,0,1,.0771-.1167l1.3394-1a.205.205,0,0,1,.1239-.0413h0l1.1206,0a.205.205,0,0,1,.1305.0461l.0135.01,1.32.9843a.2076.2076,0,0,1,.0806.1319l.0063.0307.6625,2.74a.4387.4387,0,0,0,.8529-.2062l-.6595-2.7265a1.08,1.08,0,0,0-.4183-.673l-1.0882-.8112a2.4979,2.4979,0,1,0-2.9218,0l-1.0878.8124a1.0869,1.0869,0,0,0-.4051.6137L15.0318,19.05a1.077,1.077,0,0,0,.6988,1.2783l1.8618.6449.0052,2.6895A1.0856,1.0856,0,0,0,18.6812,24.82l1.8514-.0026a1.0842,1.0842,0,0,0,1.0831-1.0822l.0053-2.7618,1.8265-.6325a1.0821,1.0821,0,0,0,.7346-1.29ZM19.6064,7.2723a1.6205,1.6205,0,1,1-1.62,1.6206,1.6224,1.6224,0,0,1,1.62-1.6206Z"/><path class="b" d="M6.7625,15.6589a.4387.4387,0,0,0,.4387-.4386v0a.4387.4387,0,1,0-.4387.439Z"/><path class="b" d="M23.0989,16.5146a.4388.4388,0,1,0,.5424.3014v0a.4387.4387,0,0,0-.5424-.301Z"/></svg>