<svg xmlns="http://www.w3.org/2000/svg" viewBox="0 0 30.9238 30.9238"><defs><style>.a{fill:#f5f5f5;}.b{fill:#303069;}</style></defs><title>ubi-ico</title><circle class="a" cx="15.4619" cy="15.4619" r="15.4619"/><path class="b" d="M22.4674,12.3136a6.671,6.671,0,0,0-1.9091-3.99A6.648,6.648,0,0,0,10.264,16.6177l4.3152,6.7182a1.5193,1.5193,0,0,0,2.5565,0l4.3152-6.7182a6.67,6.67,0,0,0,1.0165-4.3041ZM20.8706,16.245l-4.3153,6.718a.8294.8294,0,0,1-1.3957,0l-4.3153-6.718a5.9583,5.9583,0,1,1,10.0263,0Z"/><path class="b" d="M15.8576,24.1845a1.663,1.663,0,0,1-1.4043-.7676l-4.3155-6.7177A6.7974,6.7974,0,0,1,11.05,8.2177a6.7985,6.7985,0,0,1,10.5273,8.4815l-4.3154,6.7177A1.663,1.663,0,0,1,15.8576,24.1845Zm0-17.6572a6.4541,6.4541,0,0,0-4.5948,1.9033,6.4973,6.4973,0,0,0-.873,8.1064l4.3154,6.7178a1.37,1.37,0,0,0,2.3047,0l4.3154-6.7178a6.5116,6.5116,0,0,0,.9922-4.208h0a6.4969,6.4969,0,0,0-6.46-5.8017Zm0,16.9678a.9662.9662,0,0,1-.8242-.4512l-4.3155-6.7178a6.11,6.11,0,0,1,.82-7.6211,6.1158,6.1158,0,0,1,8.6387,0,6.1084,6.1084,0,0,1,.8193,7.6211l-4.3144,6.7178A.9665.9665,0,0,1,15.8576,23.4951Zm0-16.2754A5.8072,5.8072,0,0,0,10.97,16.164l4.3154,6.7178a.68.68,0,0,0,1.1445,0l4.3145-6.7178a5.8085,5.8085,0,0,0-.78-7.2461A5.7652,5.7652,0,0,0,15.8576,7.22Z"/><path class="b" d="M15.8576,17.0283a3.9551,3.9551,0,1,1,3.9551-3.9551A3.96,3.96,0,0,1,15.8576,17.0283Zm0-6.51a2.5547,2.5547,0,1,0,2.5547,2.5547A2.5569,2.5569,0,0,0,15.8576,10.5185Z"/></svg>